<svg width="82" height="62" viewBox="0 0 82 62" fill="none" xmlns="http://www.w3.org/2000/svg">
<path d="M1 46L22.1651 25.364C23.0223 24.5283 24.0399 23.8653 25.1598 23.413C26.2798 22.9607 27.4801 22.7279 28.6923 22.7279C29.9045 22.7279 31.1049 22.9607 32.2248 23.413C33.3447 23.8653 34.3623 24.5283 35.2195 25.364L56.3846 46M50.2308 40L56.0113 34.364C56.8684 33.5283 57.886 32.8653 59.006 32.413C60.1259 31.9607 61.3263 31.7279 62.5385 31.7279C63.7507 31.7279 64.951 31.9607 66.071 32.413C67.1909 32.8653 68.2085 33.5283 69.0656 34.364L81 46M7.15385 61H74.8462C76.4783 61 78.0435 60.3679 79.1976 59.2426C80.3517 58.1174 81 56.5913 81 55V7C81 5.4087 80.3517 3.88258 79.1976 2.75736C78.0435 1.63214 76.4783 1 74.8462 1H7.15385C5.52174 1 3.95649 1.63214 2.80242 2.75736C1.64835 3.88258 1 5.4087 1 7V55C1 56.5913 1.64835 58.1174 2.80242 59.2426C3.95649 60.3679 5.52174 61 7.15385 61ZM50.2308 16H50.2636V16.032H50.2308V16ZM51.7692 16C51.7692 16.3978 51.6071 16.7794 51.3186 17.0607C51.0301 17.342 50.6388 17.5 50.2308 17.5C49.8227 17.5 49.4314 17.342 49.1429 17.0607C48.8544 16.7794 48.6923 16.3978 48.6923 16C48.6923 15.6022 48.8544 15.2206 49.1429 14.9393C49.4314 14.658 49.8227 14.5 50.2308 14.5C50.6388 14.5 51.0301 14.658 51.3186 14.9393C51.6071 15.2206 51.7692 15.6022 51.7692 16Z" stroke="black" stroke-width="1.5" stroke-linecap="round" stroke-linejoin="round"/>
</svg>
